<svg xmlns="http://www.w3.org/2000/svg" viewBox="0 0 512 512" role="img" aria-label="Under construction">
  <defs>
    <pattern id="hz" patternUnits="userSpaceOnUse" width="40" height="40" patternTransform="rotate(-35)">
      <rect width="20" height="40" fill="#0c0c0c"/>
      <rect x="20" width="20" height="40" fill="#f0b90b"/>
    </pattern>
  </defs>
  <rect width="512" height="512" rx="96" fill="#0e1621"/>
  <rect x="40" y="56" width="432" height="112" rx="16" fill="url(#hz)"/>
  <!-- A-frame barrier -->
  <path d="M128 248 L196 420 L176 420 L118 268 Z" fill="#c2410c"/>
  <path d="M384 248 L316 420 L336 420 L394 268 Z" fill="#c2410c"/>
  <rect x="108" y="228" width="296" height="44" rx="10" fill="#ea580c" stroke="#7c2d12" stroke-width="6"/>
  <rect x="124" y="240" width="264" height="20" rx="4" fill="#fef9c3"/>
  <!-- reflective strip dots -->
  <circle cx="160" cy="250" r="8" fill="#facc15"/>
  <circle cx="256" cy="250" r="8" fill="#facc15"/>
  <circle cx="352" cy="250" r="8" fill="#facc15"/>
  <!-- warning triangle -->
  <path d="M256 312 L296 392 L216 392 Z" fill="#ca8a04" stroke="#a16207" stroke-width="5" stroke-linejoin="round"/>
  <path d="M256 338 L256 368 M256 328 v-4" stroke="#0e1621" stroke-width="8" stroke-linecap="round"/>
</svg>
